{
    "asset": {
        "version": "2.0",
        "generator": "Open Asset Import Library (assimp v5.0.5eb040c7)"
    },
    "accessors": [
        {
            "bufferView": 0,
            "byteOffset": 0,
            "componentType": 5126,
            "count": 505,
            "type": "VEC3",
            "max": [
                0.19447146356105805,
                1.0,
                0.6331942677497864
            ],
            "min": [
                -0.2251228392124176,
                0.0,
                0.0
            ]
        },
        {
            "bufferView": 1,
            "byteOffset": 0,
            "componentType": 5125,
            "count": 3018,
            "type": "SCALAR",
            "max": [
                504
            ],
            "min": [
                0
            ]
        }
    ],
    "buffers": [
        {
            "byteLength": 18132,
            "uri": "result.bin"
        }
    ],
    "bufferViews": [
        {
            "buffer": 0,
            "byteOffset": 0,
            "byteLength": 6060,
            "target": 34962
        },
        {
            "buffer": 0,
            "byteOffset": 6060,
            "byteLength": 12072,
            "target": 34963
        }
    ],
    "materials": [
        {
            "name": "/Generic",
            "pbrMetallicRoughness": {
                "baseColorFactor": [
                    1.0,
                    0.0,
                    0.6941176652908325,
                    1.0
                ],
                "metallicFactor": 0.0,
                "roughnessFactor": 0.8403128385543823
            }
        }
    ],
    "meshes": [
        {
            "name": "Object_1",
            "primitives": [
                {
                    "mode": 4,
                    "material": 0,
                    "indices": 1,
                    "attributes": {
                        "POSITION": 0
                    }
                }
            ]
        }
    ],
    "nodes": [
        {
            "name": "RootNode",
            "children": [
                1
            ]
        },
        {
            "name": "Layer 01",
            "children": [
                2
            ]
        },
        {
            "name": "Object_1",
            "mesh": 0
        }
    ],
    "scenes": [
        {
            "nodes": [
                0
            ]
        }
    ],
    "scene": 0
}