{"accessors" : [{"bufferView" : 0, "byteOffset" : 0, "componentType" : 5123, "count" : 3018, "type" : "SCALAR", "max" : [2965], "min" : [0]}, {"bufferView" : 1, "byteOffset" : 0, "componentType" : 5126, "count" : 2966, "type" : "VEC3", "max" : [0.19447146356105804, 0.6331942677497864, 0], "min" : [-0.2251228392124176, 0, -1], "name" : "POSITION"}, {"bufferView" : 1, "byteOffset" : 12, "componentType" : 5126, "count" : 2966, "type" : "VEC2", "max" : [0.9685794115066528, -0.044180978089571], "min" : [0.029342152178287506, -0.6473502516746521], "name" : "TEXCOORD_0"}, {"bufferView" : 1, "byteOffset" : 20, "componentType" : 5126, "count" : 2966, "type" : "VEC3", "max" : [0.9998034238815308, 0.9997352361679077, 0.9987508654594421], "min" : [-0.999742329120636, -0.999938428401947, -0.999354362487793], "name" : "NORMAL"}], "asset" : {"generator" : "Aspose.3D 23.2", "version" : "2.0"}, "buffers" : [{"uri" : "data:application/octet-stream;base64,", "byteLength" : 102620}], "bufferViews" : [{"buffer" : 0, "byteOffset" : 0, "byteLength" : 6036, "target" : 34963}, {"buffer" : 0, "byteOffset" : 6040, "byteLength" : 96576, "byteStride" : 32, "target" : 34962}], "meshes" : [{"primitives" : [{"attributes" : {"POSITION" : 1, "TEXCOORD_0" : 2, "NORMAL" : 3}, "indices" : 0, "mode" : 4}], "name" : ""}], "nodes" : [{"mesh" : 0, "name" : ""}], "scene" : 0, "scenes" : [{"nodes" : [0]}]}